<svg xmlns="http://www.w3.org/2000/svg" viewBox="0 0 100 100" width="100" height="100">
  <circle cx="50" cy="50" r="50" fill="#c0392b"/>
  <circle cx="50" cy="50" r="44" fill="none" stroke="#f8c146" stroke-width="2"/>
  <!-- Chopsticks -->
  <line x1="35" y1="20" x2="42" y2="75" stroke="#f8c146" stroke-width="3" stroke-linecap="round"/>
  <line x1="45" y1="20" x2="52" y2="75" stroke="#f8c146" stroke-width="3" stroke-linecap="round"/>
  <!-- Bowl -->
  <ellipse cx="58" cy="62" rx="18" ry="8" fill="#f8c146"/>
  <path d="M40,62 Q40,80 58,80 Q76,80 76,62" fill="#f8c146"/>
  <ellipse cx="58" cy="62" rx="18" ry="8" fill="#e8b030"/>
  <!-- Steam lines -->
  <path d="M52,50 Q50,45 52,40 Q54,35 52,30" fill="none" stroke="#f8c146" stroke-width="1.5" stroke-linecap="round"/>
  <path d="M58,50 Q56,45 58,40 Q60,35 58,30" fill="none" stroke="#f8c146" stroke-width="1.5" stroke-linecap="round"/>
  <path d="M64,50 Q62,45 64,40 Q66,35 64,30" fill="none" stroke="#f8c146" stroke-width="1.5" stroke-linecap="round"/>
</svg>
